# Blender v2.72 (sub 0) OBJ File: 'shrum.blend'
# www.blender.org
v 0.000000 3.394433 0.000000
v 0.000000 0.394432 -1.500000
v 0.000000 3.394433 -0.558455
v 0.881678 0.394432 -1.213526
v 0.328251 3.394433 -0.451799
v 1.426585 0.394432 -0.463525
v 0.531122 3.394433 -0.172572
v 1.426585 0.394432 0.463526
v 0.531122 3.394433 0.172572
v 0.881678 0.394432 1.213526
v 0.328251 3.394433 0.451799
v -0.000000 0.394432 1.500000
v -0.000000 3.394433 0.558454
v -0.881678 0.394432 1.213525
v -0.328251 3.394433 0.451799
v -1.426585 0.394432 0.463526
v -0.531122 3.394433 0.172572
v -1.426585 0.394432 -0.463526
v -0.531122 3.394433 -0.172572
v -0.881677 0.394432 -1.213526
v -0.328251 3.394433 -0.451799
v -0.000000 2.738150 -1.944053
v 1.142686 2.738150 -1.572772
v 1.848905 2.738150 -0.600745
v 1.848905 2.738150 0.600746
v 1.142686 2.738150 1.572772
v -0.000000 2.738150 1.944053
v -1.142686 2.738150 1.572772
v -1.848905 2.738150 0.600746
v -1.848905 2.738150 -0.600746
v -1.142685 2.738150 -1.572773
v 1.484039 1.867710 -2.042604
v 2.401225 1.867710 -0.780205
v 2.401225 1.867710 0.780205
v 1.484038 1.867710 2.042604
v -0.000000 1.867710 2.524797
v -1.484039 1.867710 2.042604
v -2.401225 1.867710 0.780206
v -2.401225 1.867710 -0.780206
v -1.484038 1.867710 -2.042604
v -0.000000 1.867710 -2.524797
v 0.680403 1.748194 -0.936494
v 1.100915 1.748194 -0.357709
v 1.100915 1.748194 0.357709
v 0.680403 1.748194 0.936494
v -0.000000 1.748194 1.157571
v -0.680403 1.748194 0.936494
v -1.100915 1.748194 0.357709
v -1.100915 1.748194 -0.357709
v -0.680403 1.748194 -0.936495
v 0.000000 1.748194 -1.157571
v 0.000000 0.000000 0.000000
v 0.000000 0.000000 -1.077246
v 0.633189 0.000000 -0.871511
v 1.024522 0.000000 -0.332887
v 1.024522 0.000000 0.332887
v 0.633189 0.000000 0.871510
v -0.000000 0.000000 1.077246
v -0.633189 0.000000 0.871510
v -1.024522 0.000000 0.332887
v -1.024522 0.000000 -0.332888
v -0.633189 0.000000 -0.871511
vt 0.282848 0.773293
vt 0.265272 0.769384
vt 0.264627 0.750315
vt 0.625500 0.313277
vt 0.652274 0.310067
vt 0.659320 0.322922
vt 0.721261 0.285863
vt 0.266508 0.798683
vt 0.254587 0.785190
vt 0.635099 0.299134
vt 0.666698 0.251093
vt 0.238365 0.809619
vt 0.236651 0.791696
vt 0.614333 0.295062
vt 0.603509 0.239671
vt 0.209168 0.801925
vt 0.218317 0.786418
vt 0.597418 0.297560
vt 0.190070 0.778539
vt 0.206587 0.771371
vt 0.591680 0.303632
vt 0.500828 0.286771
vt 0.188365 0.748393
vt 0.205941 0.752302
vt 0.598726 0.316488
vt 0.204705 0.723003
vt 0.216627 0.736496
vt 0.615901 0.327421
vt 0.584301 0.375461
vt 0.232849 0.712066
vt 0.234562 0.729990
vt 0.636667 0.331492
vt 0.647490 0.386883
vt 0.262046 0.719761
vt 0.252897 0.735268
vt 0.653582 0.328995
vt 0.281144 0.743147
vt 0.709377 0.374009
vt 0.852496 0.361289
vt 0.750171 0.339784
vt 0.691303 0.217156
vt 0.604252 0.198744
vt 0.541623 0.252546
vt 0.509127 0.210365
vt 0.398504 0.265266
vt 0.529739 0.340691
vt 0.477424 0.360257
vt 0.646748 0.427811
vt 0.773576 0.266298
vt 0.740940 0.009930
vt 0.532371 0.009930
vt 0.350271 0.116049
vt 0.258183 0.310954
vt 0.313137 0.522107
vt 0.559697 0.409399
vt 0.718629 0.616625
vt 0.900729 0.510506
vt 0.741873 0.416189
vt 0.992817 0.315601
vt 0.937862 0.104448
vt 0.456809 0.688970
vt 0.456809 0.832716
vt 0.372317 0.949009
vt 0.235607 0.993429
vt 0.098896 0.949009
vt 0.014404 0.832716
vt 0.014404 0.688970
vt 0.098896 0.572677
vt 0.235607 0.528257
vt 0.372317 0.572677
vt 0.235607 0.760843
vt 0.510059 0.616625
vn 0.216400 -0.713800 -0.666000
vn 0.000000 1.000000 0.000000
vn 0.137800 0.895100 -0.424000
vn 0.566600 -0.713800 -0.411600
vn 0.360700 0.895100 -0.262000
vn 0.700300 -0.713800 0.000000
vn 0.445800 0.895100 0.000000
vn 0.566600 -0.713800 0.411600
vn 0.360700 0.895100 0.262000
vn 0.216400 -0.713800 0.666000
vn 0.137800 0.895100 0.424000
vn -0.216400 -0.713800 0.666000
vn -0.137800 0.895100 0.424000
vn -0.566600 -0.713800 0.411600
vn -0.360700 0.895100 0.262000
vn -0.700300 -0.713800 0.000000
vn -0.445800 0.895100 0.000000
vn -0.566600 -0.713800 -0.411600
vn -0.360700 0.895100 -0.262000
vn -0.216400 -0.713800 -0.666000
vn -0.137800 0.895100 -0.424000
vn 0.260900 0.535800 -0.803000
vn 0.683100 0.535800 -0.496300
vn 0.844400 0.535800 0.000000
vn 0.683100 0.535800 0.496300
vn 0.260900 0.535800 0.803000
vn -0.260900 0.535800 0.803000
vn -0.683100 0.535800 0.496300
vn -0.844400 0.535800 0.000000
vn -0.683100 0.535800 -0.496300
vn -0.260900 0.535800 -0.803000
vn 0.028300 -0.995800 -0.087000
vn 0.074000 -0.995800 -0.053800
vn 0.091500 -0.995800 0.000000
vn 0.074000 -0.995800 0.053800
vn 0.028300 -0.995800 0.087000
vn -0.028300 -0.995800 0.087000
vn -0.074000 -0.995800 0.053800
vn -0.091500 -0.995800 0.000000
vn -0.074000 -0.995800 -0.053800
vn -0.028300 -0.995800 -0.087000
vn 0.300400 0.233900 -0.924700
vn 0.786600 0.233900 -0.571500
vn 0.972300 0.233900 0.000000
vn 0.786600 0.233900 0.571500
vn 0.300400 0.233900 0.924700
vn -0.300400 0.233900 0.924700
vn -0.786600 0.233900 0.571500
vn -0.972300 0.233900 0.000000
vn -0.786600 0.233900 -0.571500
vn -0.300400 0.233900 -0.924700
vn 0.000000 -1.000000 0.000000
f 4/1/1 54/2/1 53/3/1
f 1/4/2 5/5/2 3/6/2
f 3/6/3 5/5/3 23/7/3
f 6/8/4 55/9/4 54/2/4
f 1/4/2 7/10/2 5/5/2
f 5/5/5 7/10/5 24/11/5
f 8/12/6 56/13/6 55/9/6
f 1/4/2 9/14/2 7/10/2
f 7/10/7 9/14/7 25/15/7
f 8/12/8 10/16/8 57/17/8
f 1/4/2 11/18/2 9/14/2
f 25/15/9 9/14/9 11/18/9
f 12/19/10 58/20/10 57/17/10
f 1/4/2 13/21/2 11/18/2
f 11/18/11 13/21/11 27/22/11
f 12/19/12 14/23/12 59/24/12
f 1/4/2 15/25/2 13/21/2
f 27/22/13 13/21/13 15/25/13
f 14/23/14 16/26/14 60/27/14
f 1/4/2 17/28/2 15/25/2
f 15/25/15 17/28/15 29/29/15
f 18/30/16 61/31/16 60/27/16
f 1/4/2 19/32/2 17/28/2
f 17/28/17 19/32/17 30/33/17
f 18/30/18 20/34/18 62/35/18
f 1/4/2 21/36/2 19/32/2
f 30/33/19 19/32/19 21/36/19
f 2/37/20 53/3/20 62/35/20
f 1/4/2 3/6/2 21/36/2
f 31/38/21 21/36/21 3/6/21
f 41/39/22 22/40/22 23/7/22
f 23/7/23 24/11/23 33/41/23
f 24/11/24 25/15/24 34/42/24
f 25/15/25 26/43/25 35/44/25
f 26/43/26 27/22/26 36/45/26
f 27/22/27 28/46/27 37/47/27
f 37/47/28 28/46/28 29/29/28
f 29/29/29 30/33/29 39/48/29
f 39/48/30 30/33/30 31/38/30
f 31/38/31 22/40/31 41/39/31
f 41/39/32 32/49/32 42/50/32
f 32/49/33 33/41/33 43/51/33
f 33/41/34 34/42/34 44/52/34
f 34/42/35 35/44/35 45/53/35
f 45/53/36 35/44/36 36/45/36
f 46/54/37 36/45/37 37/47/37
f 37/47/38 38/55/38 48/56/38
f 38/55/39 39/48/39 49/57/39
f 39/48/40 40/58/40 50/59/40
f 40/58/41 41/39/41 51/60/41
f 51/61/42 42/62/42 4/1/42
f 4/1/43 42/62/43 43/63/43
f 43/63/44 44/64/44 8/12/44
f 44/64/45 45/65/45 10/16/45
f 45/65/46 46/66/46 12/19/46
f 46/66/47 47/67/47 14/23/47
f 14/23/48 47/67/48 48/68/48
f 16/26/49 48/68/49 49/69/49
f 49/69/50 50/70/50 20/34/50
f 50/70/51 51/61/51 2/37/51
f 52/71/52 53/3/52 54/2/52
f 52/71/52 54/2/52 55/9/52
f 52/71/52 55/9/52 56/13/52
f 52/71/52 56/13/52 57/17/52
f 52/71/52 57/17/52 58/20/52
f 52/71/52 58/20/52 59/24/52
f 52/71/52 59/24/52 60/27/52
f 52/71/52 60/27/52 61/31/52
f 52/71/52 61/31/52 62/35/52
f 52/71/52 62/35/52 53/3/52
f 2/37/1 4/1/1 53/3/1
f 22/40/3 3/6/3 23/7/3
f 4/1/4 6/8/4 54/2/4
f 23/7/5 5/5/5 24/11/5
f 6/8/6 8/12/6 55/9/6
f 24/11/7 7/10/7 25/15/7
f 56/13/8 8/12/8 57/17/8
f 26/43/9 25/15/9 11/18/9
f 10/16/10 12/19/10 57/17/10
f 26/43/11 11/18/11 27/22/11
f 58/20/12 12/19/12 59/24/12
f 28/46/13 27/22/13 15/25/13
f 59/24/14 14/23/14 60/27/14
f 28/46/15 15/25/15 29/29/15
f 16/26/16 18/30/16 60/27/16
f 29/29/17 17/28/17 30/33/17
f 61/31/18 18/30/18 62/35/18
f 31/38/19 30/33/19 21/36/19
f 20/34/20 2/37/20 62/35/20
f 22/40/21 31/38/21 3/6/21
f 32/49/22 41/39/22 23/7/22
f 32/49/23 23/7/23 33/41/23
f 33/41/24 24/11/24 34/42/24
f 34/42/25 25/15/25 35/44/25
f 35/44/26 26/43/26 36/45/26
f 36/45/27 27/22/27 37/47/27
f 38/55/28 37/47/28 29/29/28
f 38/55/29 29/29/29 39/48/29
f 40/58/30 39/48/30 31/38/30
f 40/58/31 31/38/31 41/39/31
f 51/60/32 41/39/32 42/50/32
f 42/50/33 32/49/33 43/51/33
f 43/51/34 33/41/34 44/52/34
f 44/52/35 34/42/35 45/53/35
f 46/54/36 45/53/36 36/45/36
f 47/72/37 46/54/37 37/47/37
f 47/72/38 37/47/38 48/56/38
f 48/56/39 38/55/39 49/57/39
f 49/57/40 39/48/40 50/59/40
f 50/59/41 40/58/41 51/60/41
f 2/37/42 51/61/42 4/1/42
f 6/8/43 4/1/43 43/63/43
f 6/8/44 43/63/44 8/12/44
f 8/12/45 44/64/45 10/16/45
f 10/16/46 45/65/46 12/19/46
f 12/19/47 46/66/47 14/23/47
f 16/26/48 14/23/48 48/68/48
f 18/30/49 16/26/49 49/69/49
f 18/30/50 49/69/50 20/34/50
f 20/34/51 50/70/51 2/37/51
